<svg width="14" height="14" viewBox="0 0 14 14" fill="none" xmlns="http://www.w3.org/2000/svg">
<path d="M6.83285 13.1667C8.51255 13.1667 10.1235 12.4994 11.3112 11.3117C12.4989 10.1239 13.1662 8.51304 13.1662 6.83333C13.1662 5.15363 12.4989 3.54272 11.3112 2.35499C10.1235 1.16726 8.51255 0.5 6.83285 0.5C5.15314 0.5 3.54223 1.16726 2.3545 2.35499C1.16677 3.54272 0.499512 5.15363 0.499512 6.83333C0.499512 8.51304 1.16677 10.1239 2.3545 11.3117C3.54223 12.4994 5.15314 13.1667 6.83285 13.1667Z" stroke="white" stroke-linecap="round" stroke-linejoin="round"/>
<path d="M4.83301 8.45533C4.87554 8.94596 5.10889 9.40031 5.48289 9.7207C5.85688 10.0411 6.34167 10.2019 6.83301 10.1687C8.44634 10.1687 8.83301 9.242 8.83301 8.45533C8.83301 7.66867 8.16634 6.83533 6.83301 6.83533C5.49967 6.83533 4.83301 6.30867 4.83301 5.23533C4.84544 4.98841 4.90769 4.74655 5.01601 4.52431C5.12433 4.30206 5.27648 4.10402 5.46332 3.9421C5.65015 3.78018 5.8678 3.65772 6.10319 3.58208C6.33857 3.50645 6.58682 3.47921 6.83301 3.502C7.32468 3.48083 7.80582 3.64861 8.17772 3.97092C8.54962 4.29323 8.78408 4.74564 8.83301 5.23533M6.83301 11.1667V10.3M6.83301 2.5V3.49933" stroke="white" stroke-linecap="round" stroke-linejoin="round"/>
</svg>
